<?xml version="1.0" encoding="iso-8859-1"?>

<!DOCTYPE svg PUBLIC "-//W3C//DTD SVG 1.1//EN" "http://www.w3.org/Graphics/SVG/1.1/DTD/svg11.dtd">
<!-- Uploaded to: SVG Repo, www.svgrepo.com, Generator: SVG Repo Mixer Tools -->
<svg height="800px" width="800px" version="1.1" id="_x35_" xmlns="http://www.w3.org/2000/svg" xmlns:xlink="http://www.w3.org/1999/xlink" 
	 viewBox="0 0 512 512"  xml:space="preserve">
<g>
	<g>
		<g>
			<path style="fill:#231815;" d="M106.258,39.244L260.62,193.598c8.983,8.969,23.536,8.969,32.504,0
				c8.983-8.969,8.983-23.515,0-32.519L138.769,6.732c-8.983-8.976-23.529-8.976-32.512,0
				C97.289,15.701,97.289,30.275,106.258,39.244"/>
		</g>
		<g>
			<path style="fill:#231815;" d="M375.404,39.244L221.035,193.598c-8.983,8.969-23.536,8.969-32.512,0
				c-8.969-8.969-8.969-23.515,0-32.519L342.893,6.732c8.976-8.976,23.528-8.976,32.512,0
				C384.373,15.701,384.373,30.275,375.404,39.244"/>
		</g>
	</g>
	<g>
		<path style="opacity:0.25;fill:#050101;" d="M495.358,211.663C470.115,103.48,373.142,22.928,257.29,22.928
			c-115.866,0-212.832,80.552-238.067,188.735c-4.2,17.938-6.476,36.599-6.476,55.809C12.748,402.497,122.229,512,257.29,512
			c135.061,0,244.536-109.503,244.536-244.529C501.826,248.262,499.523,229.6,495.358,211.663z"/>
		<path style="fill:#231815;" d="M244.55,10.18c-115.873,0-212.825,80.58-238.081,188.763h476.134
			C457.368,90.76,360.416,10.18,244.55,10.18z"/>
		<g>
			<path style="fill:#DB4A3B;" d="M6.469,198.943C2.283,216.853,0,235.514,0,254.716c0,135.033,109.488,244.543,244.55,244.543
				V198.943H6.469z"/>
			<path style="fill:#D61F46;" d="M482.603,198.943H244.55v300.317c135.048,0,244.529-109.51,244.529-244.543
				C489.078,235.514,486.803,216.853,482.603,198.943z"/>
		</g>
		<path style="fill:#FFFFFF;" d="M212.383,384.088c0,19.722-15.999,35.736-35.749,35.736c-19.75,0-35.749-16.014-35.749-35.736
			c0-19.778,15.999-35.764,35.749-35.764C196.383,348.325,212.383,364.31,212.383,384.088z"/>
		<path style="fill:#FFFFFF;" d="M352.529,384.088c0,19.722-15.999,35.736-35.729,35.736c-19.757,0-35.763-16.014-35.763-35.736
			c0-19.778,16.007-35.764,35.763-35.764C336.529,348.325,352.529,364.31,352.529,384.088z"/>
		<path style="fill:#FFFFFF;" d="M432.61,278.231c0,19.784-15.978,35.77-35.736,35.77c-19.743,0-35.742-15.986-35.742-35.77
			c0-19.716,15.999-35.736,35.742-35.736C416.632,242.495,432.61,258.516,432.61,278.231z"/>
		<path style="fill:#FFFFFF;" d="M112.277,278.231c0,19.784-16.006,35.77-35.749,35.77c-19.743,0-35.763-15.986-35.763-35.77
			c0-19.716,16.02-35.736,35.763-35.736C96.27,242.495,112.277,258.516,112.277,278.231z"/>
		<path style="fill:#FFFFFF;" d="M291.038,266.789c0,26.851-21.759,48.645-48.609,48.645c-26.871,0-48.637-21.794-48.637-48.645
			s21.766-48.609,48.637-48.609C269.279,218.18,291.038,239.939,291.038,266.789z"/>
	</g>
</g>
</svg>